999
DXF created from QGIS
  0
SECTION
  2
HEADER
  9
$ACADVER
  1
AC1015
  9
$EXTMIN
 10
135.57008473132484028
 20
34.82652631312045344
  9
$EXTMAX
 10
135.58557694324383647
 20
34.84574551705097178
  9
$LTSCALE
 40
1.0
  9
$PDMODE
 70
    33
  9
$PDSIZE
 40
     1
  9
$PSLTSCALE
 70
     0
  9
$HANDSEED
  5
9999999
  9
$DWGCODEPAGE
  3
ANSI_1252
  0
ENDSEC
  0
SECTION
  2
TABLES
  0
TABLE
  2
LTYPE
  5
64
100
AcDbSymbolTable
 70
     5
  0
LTYPE
  5
65
100
AcDbSymbolTableRecord
100
AcDbLinetypeTableRecord
  2
ByLayer
 70
    64
  3
Defaultstyle
 72
    65
 73
     0
 40
0.0
  0
LTYPE
  5
66
100
AcDbSymbolTableRecord
100
AcDbLinetypeTableRecord
  2
ByBlock
 70
    64
  3
Defaultstyle
 72
    65
 73
     0
 40
0.0
  0
LTYPE
  5
67
100
AcDbSymbolTableRecord
100
AcDbLinetypeTableRecord
  2
CONTINUOUS
 70
    64
  3
Defaultstyle
 72
    65
 73
     0
 40
0.0
  0
LTYPE
  5
68
100
AcDbSymbolTableRecord
100
AcDbLinetypeTableRecord
  2
DASH
 70
    64
  3

 72
    65
 73
     2
 40
0.02335619738710756
 49
0.01796630568239043
 74
     0
 49
-0.00538989170471713
 74
     0
  0
LTYPE
  5
69
100
AcDbSymbolTableRecord
100
AcDbLinetypeTableRecord
  2
DOT
 70
    64
  3

 72
    65
 73
     2
 40
0.01077978340943426
 49
0.00538989170471713
 74
     0
 49
-0.00538989170471713
 74
     0
  0
LTYPE
  5
6a
100
AcDbSymbolTableRecord
100
AcDbLinetypeTableRecord
  2
DASHDOT
 70
    64
  3

 72
    65
 73
     4
 40
0.03413598079654181
 49
0.01796630568239043
 74
     0
 49
-0.00538989170471713
 74
     0
 49
0.00538989170471713
 74
     0
 49
-0.00538989170471713
 74
     0
  0
LTYPE
  5
6b
100
AcDbSymbolTableRecord
100
AcDbLinetypeTableRecord
  2
DASHDOTDOT
 70
    64
  3

 72
    65
 73
     6
 40
0.04491576420597607
 49
0.01796630568239043
 74
     0
 49
-0.00538989170471713
 74
     0
 49
0.00538989170471713
 74
     0
 49
-0.00538989170471713
 74
     0
 49
0.00538989170471713
 74
     0
 49
-0.00538989170471713
 74
     0
  0
ENDTAB
  0
TABLE
  2
BLOCK_RECORD
  5
6c
100
AcDbSymbolTable
 70
     0
  0
BLOCK_RECORD
  5
6d
100
AcDbSymbolTableRecord
100
AcDbBlockTableRecord
  2
*Model_Space
  0
BLOCK_RECORD
  5
6e
100
AcDbSymbolTableRecord
100
AcDbBlockTableRecord
  2
*Paper_Space
  0
BLOCK_RECORD
  5
6f
100
AcDbSymbolTableRecord
100
AcDbBlockTableRecord
  2
*Paper_Space0
  0
BLOCK_RECORD
  5
70
100
AcDbSymbolTableRecord
100
AcDbBlockTableRecord
  2
symbolLayer0
  0
ENDTAB
  0
TABLE
  2
APPID
  5
71
100
AcDbSymbolTable
 70
     1
  0
APPID
  5
72
100
AcDbSymbolTableRecord
100
AcDbRegAppTableRecord
  2
ACAD
 70
     0
  0
ENDTAB
  0
TABLE
  2
VIEW
  5
73
100
AcDbSymbolTable
 70
     0
  0
ENDTAB
  0
TABLE
  2
UCS
  5
74
100
AcDbSymbolTable
 70
     0
  0
ENDTAB
  0
TABLE
  2
VPORT
  5
75
100
AcDbSymbolTable
  0
VPORT
  5
76
100
AcDbSymbolTableRecord
100
AcDbViewportTableRecord
  2
*ACTIVE
 70
     0
 10
0.0
 20
0.0
 11
1.0
 21
1.0
 12
0.0
 22
0.0
 13
0.0
 23
0.0
 14
1.0
 24
1.0
 15
1.0
 25
1.0
 16
0.0
 26
0.0
 36
1.0
 17
135.57783083728435258
 27
34.83613591508571261
 40
0.01921920393051835
 41
0.80607979263885987
 42
50.0
 43
0.0
 44
0.0
 50
0.0
 51
0.0
 71
     0
 72
   100
 73
     1
 74
     1
 75
     0
 76
     0
 77
     0
 78
     0
281
     0
 65
     1
110
0.0
120
0.0
111
1.0
121
0.0
112
0.0
122
1.0
 79
     0
146
0.0
 70
     0
  0
ENDTAB
  0
TABLE
  2
DIMSTYLE
  5
77
100
AcDbSymbolTable
100
AcDbDimStyleTable
 70
     0
  0
ENDTAB
  0
TABLE
  2
LAYER
  5
78
100
AcDbSymbolTable
 70
     4
  0
LAYER
  5
79
100
AcDbSymbolTableRecord
100
AcDbLayerTableRecord
  2
0
 70
    64
 62
     1
  6
CONTINUOUS
390
f
  0
LAYER
  5
7a
100
AcDbSymbolTableRecord
100
AcDbLayerTableRecord
  2
????
 70
    64
 62
     1
  6
CONTINUOUS
390
f
  0
LAYER
  5
7b
100
AcDbSymbolTableRecord
100
AcDbLayerTableRecord
  2
????
 70
    64
 62
     1
  6
CONTINUOUS
390
f
  0
LAYER
  5
7c
100
AcDbSymbolTableRecord
100
AcDbLayerTableRecord
  2
?????
 70
    64
 62
     1
  6
CONTINUOUS
390
f
  0
ENDTAB
  0
TABLE
  2
STYLE
  5
7d
100
AcDbSymbolTable
 70
     1
  0
STYLE
  5
7e
100
AcDbSymbolTableRecord
100
AcDbTextStyleTableRecord
  2
STANDARD
 70
    64
 40
0.0
 41
1.0
 50
0.0
 71
     0
 42
5.0
  3
romans.shx
  4

  0
ENDTAB
  0
ENDSEC
  0
SECTION
  2
BLOCKS
  0
BLOCK
  5
7f
330
6d
100
AcDbEntity
  8
0
100
AcDbBlockBegin
  2
*Model_Space
 70
     0
 10
0.0
 20
0.0
  3
*Model_Space
  1

  0
ENDBLK
  5
80
100
AcDbEntity
  8
0
100
AcDbBlockEnd
  0
BLOCK
  5
81
330
6e
100
AcDbEntity
  8
0
100
AcDbBlockBegin
  2
*Paper_Space
 70
     0
 10
0.0
 20
0.0
  3
*Paper_Space
  1

  0
ENDBLK
  5
82
100
AcDbEntity
  8
0
100
AcDbBlockEnd
  0
BLOCK
  5
83
330
6f
100
AcDbEntity
  8
0
100
AcDbBlockBegin
  2
*Paper_Space0
 70
     0
 10
0.0
 20
0.0
  3
*Paper_Space0
  1

  0
ENDBLK
  5
84
100
AcDbEntity
  8
0
100
AcDbBlockEnd
  0
BLOCK
  5
85
330
70
100
AcDbEntity
  8
0
100
AcDbBlockBegin
  2
symbolLayer0
 70
     0
 10
0.0
 20
0.0
  3
symbolLayer0
  1

  0
HATCH
  5
86
330
70
100
AcDbEntity
  8
0
420
15167816
100
AcDbHatch
 10
0.0
 20
0.0
210
0.0
220
0.0
230
1.0
  2
SOLID
 70
     1
 71
     0
 91
     1
 92
     3
 72
     1
 73
     1
 93
     2
 10
-1.0
 20
0.0
 42
1.0
 10
1.0
 20
0.0
 42
1.0
 97
     0
 75
     0
 76
     1
 98
     0
  0
LWPOLYLINE
  5
87
330
70
  8
0
100
AcDbEntity
100
AcDbPolyline
  6
CONTINUOUS
420
2302755
 90
     2
 70
     1
 43
0.0
 10
-1.0
 20
0.0
 42
1.0
 10
1.0
 20
0.0
 42
1.0
  0
ENDBLK
  5
88
100
AcDbEntity
  8
0
100
AcDbBlockEnd
  0
ENDSEC
  0
SECTION
  2
ENTITIES
  0
LWPOLYLINE
  5
89
  8
?????
100
AcDbEntity
100
AcDbPolyline
  6
CONTINUOUS
420
2302755
 90
    18
 70
     1
 43
0.00233561973871076
 10
135.57627257005856336
 20
34.83697611415895778
 10
135.57771868723736475
 20
34.83686487437597634
 10
135.57820072629698416
 20
34.83697611415895778
 10
135.57853444564597112
 20
34.83834807148244295
 10
135.57855298560977531
 20
34.83868179083140149
 10
135.57855298560977531
 20
34.83953462916762334
 10
135.57883108506723602
 20
34.84077680674429445
 10
135.57870130532040776
 20
34.84240832356141482
 10
135.58081486119712622
 20
34.8431128421869829
 10
135.58135252014824346
 20
34.84148132536986964
 10
135.58070362141418741
 20
34.83929360963782074
 10
135.58083340116095883
 20
34.83816267184413817
 10
135.58059238163116333
 20
34.83706881397811372
 10
135.58068508145032638
 20
34.83690195430363445
 10
135.58081486119712622
 20
34.83593787618443116
 10
135.57642088976922423
 20
34.83419511958432935
 10
135.5763467299138938
 20
34.83584517636527522
 10
135.57627257005856336
 20
34.83697611415895778
  0
HATCH
  5
8a
330
6d
100
AcDbEntity
  8
?????
420
14005308
100
AcDbHatch
 10
0.0
 20
0.0
210
0.0
220
0.0
230
1.0
  2
SOLID
 70
     1
 71
     0
 91
     1
 92
     2
 72
     0
 73
     1
 93
    18
 10
135.57627257005856336
 20
34.83697611415895778
 10
135.57771868723736475
 20
34.83686487437597634
 10
135.57820072629698416
 20
34.83697611415895778
 10
135.57853444564597112
 20
34.83834807148244295
 10
135.57855298560977531
 20
34.83868179083140149
 10
135.57855298560977531
 20
34.83953462916762334
 10
135.57883108506723602
 20
34.84077680674429445
 10
135.57870130532040776
 20
34.84240832356141482
 10
135.58081486119712622
 20
34.8431128421869829
 10
135.58135252014824346
 20
34.84148132536986964
 10
135.58070362141418741
 20
34.83929360963782074
 10
135.58083340116095883
 20
34.83816267184413817
 10
135.58059238163116333
 20
34.83706881397811372
 10
135.58068508145032638
 20
34.83690195430363445
 10
135.58081486119712622
 20
34.83593787618443116
 10
135.57642088976922423
 20
34.83419511958432935
 10
135.5763467299138938
 20
34.83584517636527522
 10
135.57627257005856336
 20
34.83697611415895778
 97
     0
 75
     0
 76
     1
 98
     0
  0
LWPOLYLINE
  5
8b
  8
?????
100
AcDbEntity
100
AcDbPolyline
  6
CONTINUOUS
420
2302755
 90
    13
 70
     1
 43
0.00233561973871076
 10
135.57623549013089814
 20
34.83873741072289931
 10
135.57332471580946276
 20
34.83862617093991076
 10
135.57310223624347145
 20
34.83929360963782074
 10
135.57154487928167441
 20
34.84068410692513851
 10
135.57080328072845532
 20
34.84175942482733035
 10
135.57452981345846865
 20
34.8448185188594266
 10
135.57477083298826415
 20
34.84513369824455253
 10
135.57523433208402253
 20
34.84537471777435513
 10
135.57569783117980933
 20
34.84574551705097178
 10
135.57597593063727004
 20
34.84370612102957665
 10
135.57605009049260048
 20
34.8416296450805163
 10
135.57612425034793091
 20
34.84027622772085664
 10
135.57623549013089814
 20
34.83873741072289931
  0
HATCH
  5
8c
330
6d
100
AcDbEntity
  8
?????
420
14005308
100
AcDbHatch
 10
0.0
 20
0.0
210
0.0
220
0.0
230
1.0
  2
SOLID
 70
     1
 71
     0
 91
     1
 92
     2
 72
     0
 73
     1
 93
    13
 10
135.57623549013089814
 20
34.83873741072289931
 10
135.57332471580946276
 20
34.83862617093991076
 10
135.57310223624347145
 20
34.83929360963782074
 10
135.57154487928167441
 20
34.84068410692513851
 10
135.57080328072845532
 20
34.84175942482733035
 10
135.57452981345846865
 20
34.8448185188594266
 10
135.57477083298826415
 20
34.84513369824455253
 10
135.57523433208402253
 20
34.84537471777435513
 10
135.57569783117980933
 20
34.84574551705097178
 10
135.57597593063727004
 20
34.84370612102957665
 10
135.57605009049260048
 20
34.8416296450805163
 10
135.57612425034793091
 20
34.84027622772085664
 10
135.57623549013089814
 20
34.83873741072289931
 97
     0
 75
     0
 76
     1
 98
     0
  0
LWPOLYLINE
  5
8d
  8
?????
100
AcDbEntity
100
AcDbPolyline
  6
CONTINUOUS
420
2302755
 90
    10
 70
     1
 43
0.00233561973871076
 10
135.57647650966069364
 20
34.83413949969283152
 10
135.58068419147522832
 20
34.83579207260518729
 10
135.58138423225653924
 20
34.8353315194595794
 10
135.58155003138895722
 20
34.8350367654463966
 10
135.58153160926315195
 20
34.83310244223486762
 10
135.58225928323318499
 20
34.83134312921866638
 10
135.57840466589911443
 20
34.82898538974784231
 10
135.57749620767140186
 20
34.83006070765004125
 10
135.57751212844610222
 20
34.82995381371085841
 10
135.57647650966069364
 20
34.83413949969283152
  0
HATCH
  5
8e
330
6d
100
AcDbEntity
  8
?????
420
14005308
100
AcDbHatch
 10
0.0
 20
0.0
210
0.0
220
0.0
230
1.0
  2
SOLID
 70
     1
 71
     0
 91
     1
 92
     2
 72
     0
 73
     1
 93
    10
 10
135.57647650966069364
 20
34.83413949969283152
 10
135.58068419147522832
 20
34.83579207260518729
 10
135.58138423225653924
 20
34.8353315194595794
 10
135.58155003138895722
 20
34.8350367654463966
 10
135.58153160926315195
 20
34.83310244223486762
 10
135.58225928323318499
 20
34.83134312921866638
 10
135.57840466589911443
 20
34.82898538974784231
 10
135.57749620767140186
 20
34.83006070765004125
 10
135.57751212844610222
 20
34.82995381371085841
 10
135.57647650966069364
 20
34.83413949969283152
 97
     0
 75
     0
 76
     1
 98
     0
  0
LWPOLYLINE
  5
8f
  8
?????
100
AcDbEntity
100
AcDbPolyline
  6
CONTINUOUS
420
2302755
 90
    15
 70
     1
 43
0.00233561973871076
 10
135.57858714437847425
 20
34.82897187550263141
 10
135.58237725122131678
 20
34.83116675622617464
 10
135.58531677703297191
 20
34.82985644061958652
 10
135.58547287675949633
 20
34.82914531964321014
 10
135.58538615468921762
 20
34.82886780901828416
 10
135.58557694324383647
 20
34.82813934362784636
 10
135.58417204570514514
 20
34.82652631312045344
 10
135.58380781300994045
 20
34.8267171016750936
 10
135.58320075851790421
 20
34.82694257905784951
 10
135.58183054980733573
 20
34.82718540085465975
 10
135.58082457379197194
 20
34.82735884499523848
 10
135.57962780922196089
 20
34.82761901120611014
 10
135.57936764301109633
 20
34.82782714417480463
 10
135.57846573348007269
 20
34.82879843136205267
 10
135.57858714437847425
 20
34.82897187550263141
  0
HATCH
  5
90
330
6d
100
AcDbEntity
  8
?????
420
14005308
100
AcDbHatch
 10
0.0
 20
0.0
210
0.0
220
0.0
230
1.0
  2
SOLID
 70
     1
 71
     0
 91
     1
 92
     2
 72
     0
 73
     1
 93
    15
 10
135.57858714437847425
 20
34.82897187550263141
 10
135.58237725122131678
 20
34.83116675622617464
 10
135.58531677703297191
 20
34.82985644061958652
 10
135.58547287675949633
 20
34.82914531964321014
 10
135.58538615468921762
 20
34.82886780901828416
 10
135.58557694324383647
 20
34.82813934362784636
 10
135.58417204570514514
 20
34.82652631312045344
 10
135.58380781300994045
 20
34.8267171016750936
 10
135.58320075851790421
 20
34.82694257905784951
 10
135.58183054980733573
 20
34.82718540085465975
 10
135.58082457379197194
 20
34.82735884499523848
 10
135.57962780922196089
 20
34.82761901120611014
 10
135.57936764301109633
 20
34.82782714417480463
 10
135.57846573348007269
 20
34.82879843136205267
 10
135.57858714437847425
 20
34.82897187550263141
 97
     0
 75
     0
 76
     1
 98
     0
  0
LWPOLYLINE
  5
91
  8
????
100
AcDbEntity
100
AcDbPolyline
  6
CONTINUOUS
420
11744820
 90
     7
 70
     0
 43
0.00772551144342788
 10
135.57619790819254035
 20
34.8379798011898103
 10
135.57662458404686845
 20
34.83390267635968485
 10
135.57701965428233848
 20
34.83194312799171399
 10
135.57764386525440159
 20
34.83027593159800261
 10
135.57794411863335426
 20
34.82979394591071554
 10
135.57945328693287479
 20
34.8297702416965862
 10
135.58114418754072972
 20
34.83068680464289457
  0
LWPOLYLINE
  5
92
  8
????
100
AcDbEntity
100
AcDbPolyline
  6
CONTINUOUS
420
11744820
 90
     2
 70
     0
 43
0.00772551144342788
 10
135.58112838473130068
 20
34.83075001588057518
 10
135.58116789175485906
 20
34.8307026074523165
  0
LWPOLYLINE
  5
93
  8
????
100
AcDbEntity
100
AcDbPolyline
  6
CONTINUOUS
420
11744820
 90
     7
 70
     0
 43
0.00772551144342788
 10
135.57785720318153722
 20
34.82979394591071554
 10
135.5783944987018117
 20
34.82913022791511537
 10
135.57837560643707775
 20
34.82907682477311795
 10
135.57731542726651242
 20
34.82828416744933264
 10
135.57722625331757627
 20
34.82734288687733937
 10
135.57819725853920545
 20
34.82687720069961301
 10
135.5793961527414524
 20
34.82687720069961301
  0
LWPOLYLINE
  5
94
  8
????
100
AcDbEntity
100
AcDbPolyline
  6
CONTINUOUS
420
11744820
 90
    13
 70
     0
 43
0.00772551144342788
 10
135.57837560643707775
 20
34.82907682477311795
 10
135.57858367898455754
 20
34.82879939470979735
 10
135.57950514312346968
 20
34.82938397948608866
 10
135.57988165535226699
 20
34.82971095063214761
 10
135.58155614394874533
 20
34.82970104241559994
 10
135.58424127063307196
 20
34.82959205203358266
 10
135.58468714037772429
 20
34.82909664120621329
 10
135.58470695681080542
 20
34.82790765522053533
 10
135.58376567623881215
 20
34.82788783878743999
 10
135.58202183012647879
 20
34.82785811413779697
 10
135.58189302331138038
 20
34.82729334579460101
 10
135.57992128821845768
 20
34.82766985802339832
 10
135.57866294471693891
 20
34.82883902757598804
  0
LWPOLYLINE
  5
95
  8
????
100
AcDbEntity
100
AcDbPolyline
  6
CONTINUOUS
420
11744820
 90
     3
 70
     0
 43
0.00772551144342788
 10
135.57955468420618672
 20
34.82932453018680263
 10
135.58005009503355609
 20
34.82884893579252861
 10
135.58052568942784433
 20
34.82885884400907628
  0
LWPOLYLINE
  5
96
  8
????
100
AcDbEntity
100
AcDbPolyline
  6
CONTINUOUS
420
11744820
 90
     2
 70
     0
 43
0.00772551144342788
 10
135.57945560204072422
 20
34.82931462197025496
 10
135.57951505134002446
 20
34.82806618668529097
  0
LWPOLYLINE
  5
97
  8
????
100
AcDbEntity
100
AcDbPolyline
  6
CONTINUOUS
420
11744820
 90
     1
 70
     1
 43
0.00772551144342788
 10
135.5794952349069149
 20
34.83212855546969422
  0
LWPOLYLINE
  5
98
  8
????
100
AcDbEntity
100
AcDbPolyline
  6
CONTINUOUS
420
11744820
 90
     5
 70
     0
 43
0.00772551144342788
 10
135.57775138879458154
 20
34.83012709572713561
 10
135.57789010382626316
 20
34.83076122158616528
 10
135.57940606095797875
 20
34.83077112980271295
 10
135.57942587739108831
 20
34.83019645324296931
 10
135.57961413350548696
 20
34.82985957388035558
  0
LWPOLYLINE
  5
99
  8
????
100
AcDbEntity
100
AcDbPolyline
  6
CONTINUOUS
420
11744820
 90
     3
 70
     0
 43
0.00772551144342788
 10
135.57945560204072422
 20
34.83024599432570056
 10
135.58063467980986161
 20
34.83088012018473023
 10
135.57935651987526171
 20
34.83078103801926062
  0
LWPOLYLINE
  5
9a
  8
????
100
AcDbEntity
100
AcDbPolyline
  6
CONTINUOUS
420
11744820
 90
     2
 70
     0
 43
0.00772551144342788
 10
135.57785047096007247
 20
34.83032526005808194
 10
135.57945560204072422
 20
34.83030544362498659
  0
LWPOLYLINE
  5
9b
  8
????
100
AcDbEntity
100
AcDbPolyline
  6
CONTINUOUS
420
11744820
 90
     2
 70
     0
 43
0.00772551144342788
 10
135.57998193957701005
 20
34.83058801426370366
 10
135.57994164341076271
 20
34.83076934701178828
  0
LWPOLYLINE
  5
9c
  8
????
100
AcDbEntity
100
AcDbPolyline
  6
CONTINUOUS
420
11744820
 90
     2
 70
     0
 43
0.00772551144342788
 10
135.57949838558209876
 20
34.82796876345800996
 10
135.5794782374989893
 20
34.82697143334353029
  0
LWPOLYLINE
  5
9d
  8
????
100
AcDbEntity
100
AcDbPolyline
  6
CONTINUOUS
420
11744820
 90
     2
 70
     0
 43
0.00772551144342788
 10
135.57668772798677992
 20
34.83424489135011726
 10
135.58064682631999176
 20
34.83578621970885081
  0
LWPOLYLINE
  5
9e
  8
????
100
AcDbEntity
100
AcDbPolyline
  6
CONTINUOUS
420
11744820
 90
     2
 70
     0
 43
0.00772551144342788
 10
135.5806266782368823
 20
34.83580133077119712
 10
135.5804856416550308
 20
34.83696991959219957
  0
LWPOLYLINE
  5
9f
  8
????
100
AcDbEntity
100
AcDbPolyline
  6
CONTINUOUS
420
11744820
 90
     2
 70
     0
 43
0.00772551144342788
 10
135.5804856416550308
 20
34.8369799936337543
 10
135.58066697440310122
 20
34.83820902670412067
  0
LWPOLYLINE
  5
a0
  8
????
100
AcDbEntity
100
AcDbPolyline
  6
CONTINUOUS
420
11744820
 90
     2
 70
     0
 43
0.00772551144342788
 10
135.58066697440310122
 20
34.83822917478724435
 10
135.58050578973814027
 20
34.83945820785760361
  0
LWPOLYLINE
  5
a1
  8
????
100
AcDbEntity
100
AcDbPolyline
  6
CONTINUOUS
420
11744820
 90
     2
 70
     0
 43
0.00772551144342788
 10
135.58054608590438761
 20
34.83946828189916545
 10
135.58113038031490305
 20
34.8412110910891144
  0
LWPOLYLINE
  5
a2
  8
????
100
AcDbEntity
100
AcDbPolyline
  6
CONTINUOUS
420
11744820
 90
     2
 70
     0
 43
0.00772551144342788
 10
135.58111023223176517
 20
34.84126146129690937
 10
135.58091882544212581
 20
34.84249049436727574
  0
LWPOLYLINE
  5
a3
  8
????
100
AcDbEntity
100
AcDbPolyline
  6
CONTINUOUS
420
11744820
 90
     2
 70
     0
 43
0.00772551144342788
 10
135.58091882544212581
 20
34.84253079053351598
 10
135.58060653015374442
 20
34.84295390027905626
  0
LWPOLYLINE
  5
a4
  8
????
100
AcDbEntity
100
AcDbPolyline
  6
CONTINUOUS
420
11744820
 90
     2
 70
     0
 43
0.00772551144342788
 10
135.58061660419531336
 20
34.84291360411281602
 10
135.5785312775923046
 20
34.84212782887110649
  0
LWPOLYLINE
  5
a5
  8
????
100
AcDbEntity
100
AcDbPolyline
  6
CONTINUOUS
420
11744820
 90
     2
 70
     0
 43
0.00772551144342788
 10
135.57855142567544249
 20
34.84213790291266832
 10
135.57589187870348724
 20
34.84151331233591975
  0
LWPOLYLINE
  5
a6
  8
????
100
AcDbEntity
100
AcDbPolyline
  6
CONTINUOUS
420
11744820
 90
     2
 70
     0
 43
0.00772551144342788
 10
135.57589187870348724
 20
34.84148309021124135
 10
135.57621424803343757
 20
34.8379571756651103
  0
LWPOLYLINE
  5
a7
  8
????
100
AcDbEntity
100
AcDbPolyline
  6
CONTINUOUS
420
11744820
 90
     2
 70
     0
 43
0.00772551144342788
 10
135.58011290211729261
 20
34.84269197519848404
 10
135.58035467911474825
 20
34.84203716249706417
  0
LWPOLYLINE
  5
a8
  8
????
100
AcDbEntity
100
AcDbPolyline
  6
CONTINUOUS
420
11744820
 90
     2
 70
     0
 43
0.00772551144342788
 10
135.58038490123942665
 20
34.84160397870996206
 10
135.58035467911474825
 20
34.84199686633081683
  0
LWPOLYLINE
  5
a9
  8
????
100
AcDbEntity
100
AcDbPolyline
  6
CONTINUOUS
420
11744820
 90
     2
 70
     0
 43
0.00772551144342788
 10
135.58038993826022534
 20
34.84158634913723773
 10
135.58016327232510889
 20
34.84052857477339415
  0
LWPOLYLINE
  5
aa
  8
????
100
AcDbEntity
100
AcDbPolyline
  6
CONTINUOUS
420
11744820
 90
     2
 70
     0
 43
0.00772551144342788
 10
135.58015319828356837
 20
34.84052353775261679
 10
135.58011793913809129
 20
34.84052353775261679
  0
LWPOLYLINE
  5
ab
  8
????
100
AcDbEntity
100
AcDbPolyline
  6
CONTINUOUS
420
11744820
 90
     2
 70
     0
 43
0.00772551144342788
 10
135.58011290211732103
 20
34.84051346371105495
 10
135.58005749488873448
 20
34.84009539098629915
  0
LWPOLYLINE
  5
ac
  8
????
100
AcDbEntity
100
AcDbPolyline
  6
CONTINUOUS
420
11744820
 90
     2
 70
     0
 43
0.00772551144342788
 10
135.58004238382639528
 20
34.84008531694474442
 10
135.57988119916143432
 20
34.84009035396552179
  0
LWPOLYLINE
  5
ad
  8
????
100
AcDbEntity
100
AcDbPolyline
  6
CONTINUOUS
420
11744820
 90
     2
 70
     0
 43
0.00772551144342788
 10
135.57988623618220458
 20
34.84008027992395995
 10
135.57979053278739912
 20
34.8397780586771475
  0
LWPOLYLINE
  5
ae
  8
????
100
AcDbEntity
100
AcDbPolyline
  6
CONTINUOUS
420
11744820
 90
     2
 70
     0
 43
0.00772551144342788
 10
135.57979556980816938
 20
34.8397629476148083
 10
135.57928179368857968
 20
34.83978309569793197
  0
LWPOLYLINE
  5
af
  8
????
100
AcDbEntity
100
AcDbPolyline
  6
CONTINUOUS
420
11744820
 90
     2
 70
     0
 43
0.00772551144342788
 10
135.57928179368857968
 20
34.83979820676027117
 10
135.57923142348079182
 20
34.83909806087182659
  0
LWPOLYLINE
  5
b0
  8
????
100
AcDbEntity
100
AcDbPolyline
  6
CONTINUOUS
420
11744820
 90
     2
 70
     0
 43
0.00772551144342788
 10
135.57924149752233234
 20
34.83908798683026475
 10
135.57933216389639597
 20
34.83863969198082344
  0
LWPOLYLINE
  5
b1
  8
????
100
AcDbEntity
100
AcDbPolyline
  6
CONTINUOUS
420
11744820
 90
     2
 70
     0
 43
0.00772551144342788
 10
135.57932208985482703
 20
34.83863969198082344
 10
135.57866727715341426
 20
34.83861954389770688
  0
LWPOLYLINE
  5
b2
  8
????
100
AcDbEntity
100
AcDbPolyline
  6
CONTINUOUS
420
11744820
 90
     2
 70
     0
 43
0.00772551144342788
 10
135.57866727715341426
 20
34.838603173580168
 10
135.57856653673781011
 20
34.83800376810732757
  0
LWPOLYLINE
  5
b3
  8
????
100
AcDbEntity
100
AcDbPolyline
  6
CONTINUOUS
420
11744820
 90
     2
 70
     0
 43
0.00772551144342788
 10
135.57860683290402903
 20
34.83800880512810494
 10
135.57924149752233234
 20
34.83798865704498837
  0
LWPOLYLINE
  5
b4
  8
????
100
AcDbEntity
100
AcDbPolyline
  6
CONTINUOUS
420
11744820
 90
     2
 70
     0
 43
0.00772551144342788
 10
135.57924653454313102
 20
34.8379836200242039
 10
135.57911557200284847
 20
34.83776199110987903
  0
LWPOLYLINE
  5
b5
  8
????
100
AcDbEntity
100
AcDbPolyline
  6
CONTINUOUS
420
11744820
 90
     2
 70
     0
 43
0.00772551144342788
 10
135.57910549796127953
 20
34.83775695408910167
 10
135.57909038689894032
 20
34.83747991794619026
  0
LWPOLYLINE
  5
b6
  8
????
100
AcDbEntity
100
AcDbPolyline
  6
CONTINUOUS
420
11744820
 90
     2
 70
     0
 43
0.00772551144342788
 10
135.57909542391971058
 20
34.83745473284228922
 10
135.57924149752233234
 20
34.83742954773838818
  0
LWPOLYLINE
  5
b7
  8
????
100
AcDbEntity
100
AcDbPolyline
  6
CONTINUOUS
420
11744820
 90
     2
 70
     0
 43
0.00772551144342788
 10
135.57921631241845262
 20
34.83742451071760371
 10
135.57922638645999314
 20
34.83735902944746243
  0
LWPOLYLINE
  5
b8
  8
????
100
AcDbEntity
100
AcDbPolyline
  6
CONTINUOUS
420
11744820
 90
     2
 70
     0
 43
0.00772551144342788
 10
135.57926164560547022
 20
34.83735902944746243
 10
135.57937749708341357
 20
34.83733888136434587
  0
LWPOLYLINE
  5
b9
  8
????
100
AcDbEntity
100
AcDbPolyline
  6
CONTINUOUS
420
11744820
 90
     2
 70
     0
 43
0.00772551144342788
 10
135.57938757112498251
 20
34.83732377030199956
 10
135.57938757112498251
 20
34.83713740053313757
  0
LWPOLYLINE
  5
ba
  8
????
100
AcDbEntity
100
AcDbPolyline
  6
CONTINUOUS
420
11744820
 90
     2
 70
     0
 43
0.00772551144342788
 10
135.57939764516652303
 20
34.83713236351235309
 10
135.57944297835354064
 20
34.83710717840845206
  0
LWPOLYLINE
  5
bb
  8
????
100
AcDbEntity
100
AcDbPolyline
  6
CONTINUOUS
420
11744820
 90
     2
 70
     0
 43
0.00772551144342788
 10
135.57944297835354064
 20
34.83710214138767469
 10
135.57944297835354064
 20
34.83698628990973134
  0
LWPOLYLINE
  5
bc
  8
????
100
AcDbEntity
100
AcDbPolyline
  6
CONTINUOUS
420
11744820
 90
     2
 70
     0
 43
0.00772551144342788
 10
135.57946312643667852
 20
34.83697495661297694
 10
135.57920120135611342
 20
34.83694473448829143
  0
LWPOLYLINE
  5
bd
  8
????
100
AcDbEntity
100
AcDbPolyline
  6
CONTINUOUS
420
11744820
 90
     2
 70
     0
 43
0.00772551144342788
 10
135.57921127539765394
 20
34.83695480852985327
 10
135.57922134943922288
 20
34.83624458859984685
  0
LWPOLYLINE
  5
be
  8
????
100
AcDbEntity
100
AcDbPolyline
  6
CONTINUOUS
420
11744820
 90
     2
 70
     0
 43
0.00772551144342788
 10
135.57924149752233234
 20
34.83622444051672318
 10
135.57931201581325809
 20
34.83567540525168482
  0
LWPOLYLINE
  5
bf
  8
????
100
AcDbEntity
100
AcDbPolyline
  6
CONTINUOUS
420
11744820
 90
     2
 70
     0
 43
0.00772551144342788
 10
135.57969986641333549
 20
34.83545377633735995
 10
135.57933720091716623
 20
34.83566029418934562
  0
LWPOLYLINE
  5
c0
  8
????
100
AcDbEntity
100
AcDbPolyline
  6
CONTINUOUS
420
11744820
 90
     2
 70
     0
 43
0.00772551144342788
 10
135.57607597308864911
 20
34.83873802387358154
 10
135.57345200621750791
 20
34.83861264661693724
  0
LWPOLYLINE
  5
c1
  8
????
100
AcDbEntity
100
AcDbPolyline
  6
CONTINUOUS
420
11744820
 90
     4
 70
     0
 43
0.00772551144342788
 10
135.5734072286258538
 20
34.83863055765360173
 10
135.57347887277248333
 20
34.83857682454361537
 10
135.57137432596456961
 20
34.84123661348809264
 10
135.57076535071803391
 20
34.84164856733134741
  0
LWPOLYLINE
  5
c2
  8
????
100
AcDbEntity
100
AcDbPolyline
  6
CONTINUOUS
420
11744820
 90
     2
 70
     0
 43
0.00772551144342788
 10
135.57085490590134214
 20
34.84165752284967255
 10
135.57556550854374677
 20
34.84534719640228673
  0
LWPOLYLINE
  5
c3
  8
????
100
AcDbEntity
100
AcDbPolyline
  6
CONTINUOUS
420
11744820
 90
     2
 70
     0
 43
0.00772551144342788
 10
135.57563715269040472
 20
34.84534719640228673
 10
135.57592372927700808
 20
34.84155901214802498
  0
LWPOLYLINE
  5
c4
  8
????
100
AcDbEntity
100
AcDbPolyline
  6
CONTINUOUS
420
11744820
 90
     2
 70
     0
 43
0.00772551144342788
 10
135.57573566339203808
 20
34.84395013554255627
 10
135.57526102092046472
 20
34.84442477801413673
  0
LWPOLYLINE
  5
c5
  8
????
100
AcDbEntity
100
AcDbPolyline
  6
CONTINUOUS
420
11744820
 90
     2
 70
     0
 43
0.00772551144342788
 10
135.57561924165375444
 20
34.84487255393071337
 10
135.57148179218455653
 20
34.84115601382310956
  0
LWPOLYLINE
  5
c6
  8
????
100
AcDbEntity
100
AcDbPolyline
  6
CONTINUOUS
420
11744820
 90
     2
 70
     0
 43
0.00772551144342788
 10
135.57142805907457728
 20
34.84111123623144834
 10
135.57008473132484028
 20
34.84009926265998303
  0
LWPOLYLINE
  5
c7
  8
????
100
AcDbEntity
100
AcDbPolyline
  6
CONTINUOUS
420
11744820
 90
     3
 70
     0
 43
0.00772551144342788
 10
135.57029966376478569
 20
34.84023359543495246
 10
135.57031757480143597
 20
34.84024255095328471
 10
135.57163403599619755
 20
34.84089630379148872
  0
LWPOLYLINE
  5
c8
  8
????
100
AcDbEntity
100
AcDbPolyline
  6
CONTINUOUS
420
11744820
 90
     2
 70
     0
 43
0.00772551144342788
 10
135.57313856307590072
 20
34.84339489340599982
 10
135.57329080688754175
 20
34.84270531849446684
  0
LWPOLYLINE
  5
c9
  8
????
100
AcDbEntity
100
AcDbPolyline
  6
CONTINUOUS
420
11744820
 90
     1
 70
     1
 43
0.00772551144342788
 10
135.57191165706447578
 20
34.84245456398118534
  0
LWPOLYLINE
  5
ca
  8
????
100
AcDbEntity
100
AcDbPolyline
  6
CONTINUOUS
420
11744820
 90
     3
 70
     0
 43
0.00772551144342788
 10
135.57196539017445502
 20
34.84237396431620226
 10
135.57216241157775016
 20
34.84178290010631684
 10
135.57193852361945119
 20
34.84240978638953123
  0
HATCH
  5
cb
330
6d
100
AcDbEntity
  8
????
420
15167816
100
AcDbHatch
 10
0.0
 20
0.0
210
0.0
220
0.0
230
1.0
  2
SOLID
 70
     1
 71
     0
 91
     1
 92
     3
 72
     1
 73
     1
 93
     2
 10
134.57525559999999132
 20
34.84432499999999777
 42
1.0
 10
136.57525559999999132
 20
34.84432499999999777
 42
1.0
 97
     0
 75
     0
 76
     1
 98
     0
  0
LWPOLYLINE
  5
cc
330
6d
  8
????
100
AcDbEntity
100
AcDbPolyline
  6
CONTINUOUS
420
2302755
 90
     2
 70
     1
 43
0.0
 10
134.57525559999999132
 20
34.84432499999999777
 42
1.0
 10
136.57525559999999132
 20
34.84432499999999777
 42
1.0
  0
HATCH
  5
cd
330
6d
100
AcDbEntity
  8
????
420
15167816
100
AcDbHatch
 10
0.0
 20
0.0
210
0.0
220
0.0
230
1.0
  2
SOLID
 70
     1
 71
     0
 91
     1
 92
     3
 72
     1
 73
     1
 93
     2
 10
134.57491939999999886
 20
34.84386110999999886
 42
1.0
 10
136.57491939999999886
 20
34.84386110999999886
 42
1.0
 97
     0
 75
     0
 76
     1
 98
     0
  0
LWPOLYLINE
  5
ce
330
6d
  8
????
100
AcDbEntity
100
AcDbPolyline
  6
CONTINUOUS
420
2302755
 90
     2
 70
     1
 43
0.0
 10
134.57491939999999886
 20
34.84386110999999886
 42
1.0
 10
136.57491939999999886
 20
34.84386110999999886
 42
1.0
  0
HATCH
  5
cf
330
6d
100
AcDbEntity
  8
????
420
15167816
100
AcDbHatch
 10
0.0
 20
0.0
210
0.0
220
0.0
230
1.0
  2
SOLID
 70
     1
 71
     0
 91
     1
 92
     3
 72
     1
 73
     1
 93
     2
 10
134.57444440000000441
 20
34.84361110999999767
 42
1.0
 10
136.57444440000000441
 20
34.84361110999999767
 42
1.0
 97
     0
 75
     0
 76
     1
 98
     0
  0
LWPOLYLINE
  5
d0
330
6d
  8
????
100
AcDbEntity
100
AcDbPolyline
  6
CONTINUOUS
420
2302755
 90
     2
 70
     1
 43
0.0
 10
134.57444440000000441
 20
34.84361110999999767
 42
1.0
 10
136.57444440000000441
 20
34.84361110999999767
 42
1.0
  0
HATCH
  5
d1
330
6d
100
AcDbEntity
  8
????
420
15167816
100
AcDbHatch
 10
0.0
 20
0.0
210
0.0
220
0.0
230
1.0
  2
SOLID
 70
     1
 71
     0
 91
     1
 92
     3
 72
     1
 73
     1
 93
     2
 10
134.57144170000000827
 20
34.8421471899999986
 42
1.0
 10
136.57144170000000827
 20
34.8421471899999986
 42
1.0
 97
     0
 75
     0
 76
     1
 98
     0
  0
LWPOLYLINE
  5
d2
330
6d
  8
????
100
AcDbEntity
100
AcDbPolyline
  6
CONTINUOUS
420
2302755
 90
     2
 70
     1
 43
0.0
 10
134.57144170000000827
 20
34.8421471899999986
 42
1.0
 10
136.57144170000000827
 20
34.8421471899999986
 42
1.0
  0
HATCH
  5
d3
330
6d
100
AcDbEntity
  8
????
420
15167816
100
AcDbHatch
 10
0.0
 20
0.0
210
0.0
220
0.0
230
1.0
  2
SOLID
 70
     1
 71
     0
 91
     1
 92
     3
 72
     1
 73
     1
 93
     2
 10
134.57313609999999926
 20
34.83946942000000035
 42
1.0
 10
136.57313609999999926
 20
34.83946942000000035
 42
1.0
 97
     0
 75
     0
 76
     1
 98
     0
  0
LWPOLYLINE
  5
d4
330
6d
  8
????
100
AcDbEntity
100
AcDbPolyline
  6
CONTINUOUS
420
2302755
 90
     2
 70
     1
 43
0.0
 10
134.57313609999999926
 20
34.83946942000000035
 42
1.0
 10
136.57313609999999926
 20
34.83946942000000035
 42
1.0
  0
HATCH
  5
d5
330
6d
100
AcDbEntity
  8
????
420
15167816
100
AcDbHatch
 10
0.0
 20
0.0
210
0.0
220
0.0
230
1.0
  2
SOLID
 70
     1
 71
     0
 91
     1
 92
     3
 72
     1
 73
     1
 93
     2
 10
134.5805971999999997
 20
34.84286111000000119
 42
1.0
 10
136.5805971999999997
 20
34.84286111000000119
 42
1.0
 97
     0
 75
     0
 76
     1
 98
     0
  0
LWPOLYLINE
  5
d6
330
6d
  8
????
100
AcDbEntity
100
AcDbPolyline
  6
CONTINUOUS
420
2302755
 90
     2
 70
     1
 43
0.0
 10
134.5805971999999997
 20
34.84286111000000119
 42
1.0
 10
136.5805971999999997
 20
34.84286111000000119
 42
1.0
  0
HATCH
  5
d7
330
6d
100
AcDbEntity
  8
????
420
15167816
100
AcDbHatch
 10
0.0
 20
0.0
210
0.0
220
0.0
230
1.0
  2
SOLID
 70
     1
 71
     0
 91
     1
 92
     3
 72
     1
 73
     1
 93
     2
 10
134.58054999999998813
 20
34.84286382999999887
 42
1.0
 10
136.58054999999998813
 20
34.84286382999999887
 42
1.0
 97
     0
 75
     0
 76
     1
 98
     0
  0
LWPOLYLINE
  5
d8
330
6d
  8
????
100
AcDbEntity
100
AcDbPolyline
  6
CONTINUOUS
420
2302755
 90
     2
 70
     1
 43
0.0
 10
134.58054999999998813
 20
34.84286382999999887
 42
1.0
 10
136.58054999999998813
 20
34.84286382999999887
 42
1.0
  0
HATCH
  5
d9
330
6d
100
AcDbEntity
  8
????
420
15167816
100
AcDbHatch
 10
0.0
 20
0.0
210
0.0
220
0.0
230
1.0
  2
SOLID
 70
     1
 71
     0
 91
     1
 92
     3
 72
     1
 73
     1
 93
     2
 10
134.58038199999998596
 20
34.84283299999999883
 42
1.0
 10
136.58038199999998596
 20
34.84283299999999883
 42
1.0
 97
     0
 75
     0
 76
     1
 98
     0
  0
LWPOLYLINE
  5
da
330
6d
  8
????
100
AcDbEntity
100
AcDbPolyline
  6
CONTINUOUS
420
2302755
 90
     2
 70
     1
 43
0.0
 10
134.58038199999998596
 20
34.84283299999999883
 42
1.0
 10
136.58038199999998596
 20
34.84283299999999883
 42
1.0
  0
HATCH
  5
db
330
6d
100
AcDbEntity
  8
????
420
15167816
100
AcDbHatch
 10
0.0
 20
0.0
210
0.0
220
0.0
230
1.0
  2
SOLID
 70
     1
 71
     0
 91
     1
 92
     3
 72
     1
 73
     1
 93
     2
 10
134.5796929999999918
 20
34.84261800000000164
 42
1.0
 10
136.5796929999999918
 20
34.84261800000000164
 42
1.0
 97
     0
 75
     0
 76
     1
 98
     0
  0
LWPOLYLINE
  5
dc
330
6d
  8
????
100
AcDbEntity
100
AcDbPolyline
  6
CONTINUOUS
420
2302755
 90
     2
 70
     1
 43
0.0
 10
134.5796929999999918
 20
34.84261800000000164
 42
1.0
 10
136.5796929999999918
 20
34.84261800000000164
 42
1.0
  0
HATCH
  5
dd
330
6d
100
AcDbEntity
  8
????
420
15167816
100
AcDbHatch
 10
0.0
 20
0.0
210
0.0
220
0.0
230
1.0
  2
SOLID
 70
     1
 71
     0
 91
     1
 92
     3
 72
     1
 73
     1
 93
     2
 10
134.57937499999999886
 20
34.83698610999999801
 42
1.0
 10
136.57937499999999886
 20
34.83698610999999801
 42
1.0
 97
     0
 75
     0
 76
     1
 98
     0
  0
LWPOLYLINE
  5
de
330
6d
  8
????
100
AcDbEntity
100
AcDbPolyline
  6
CONTINUOUS
420
2302755
 90
     2
 70
     1
 43
0.0
 10
134.57937499999999886
 20
34.83698610999999801
 42
1.0
 10
136.57937499999999886
 20
34.83698610999999801
 42
1.0
  0
HATCH
  5
df
330
6d
100
AcDbEntity
  8
????
420
15167816
100
AcDbHatch
 10
0.0
 20
0.0
210
0.0
220
0.0
230
1.0
  2
SOLID
 70
     1
 71
     0
 91
     1
 92
     3
 72
     1
 73
     1
 93
     2
 10
134.57964999999998668
 20
34.83558332999999863
 42
1.0
 10
136.57964999999998668
 20
34.83558332999999863
 42
1.0
 97
     0
 75
     0
 76
     1
 98
     0
  0
LWPOLYLINE
  5
e0
330
6d
  8
????
100
AcDbEntity
100
AcDbPolyline
  6
CONTINUOUS
420
2302755
 90
     2
 70
     1
 43
0.0
 10
134.57964999999998668
 20
34.83558332999999863
 42
1.0
 10
136.57964999999998668
 20
34.83558332999999863
 42
1.0
  0
HATCH
  5
e1
330
6d
100
AcDbEntity
  8
????
420
15167816
100
AcDbHatch
 10
0.0
 20
0.0
210
0.0
220
0.0
230
1.0
  2
SOLID
 70
     1
 71
     0
 91
     1
 92
     3
 72
     1
 73
     1
 93
     2
 10
134.57803329999998709
 20
34.83476386000000247
 42
1.0
 10
136.57803329999998709
 20
34.83476386000000247
 42
1.0
 97
     0
 75
     0
 76
     1
 98
     0
  0
LWPOLYLINE
  5
e2
330
6d
  8
????
100
AcDbEntity
100
AcDbPolyline
  6
CONTINUOUS
420
2302755
 90
     2
 70
     1
 43
0.0
 10
134.57803329999998709
 20
34.83476386000000247
 42
1.0
 10
136.57803329999998709
 20
34.83476386000000247
 42
1.0
  0
HATCH
  5
e3
330
6d
100
AcDbEntity
  8
????
420
15167816
100
AcDbHatch
 10
0.0
 20
0.0
210
0.0
220
0.0
230
1.0
  2
SOLID
 70
     1
 71
     0
 91
     1
 92
     3
 72
     1
 73
     1
 93
     2
 10
134.57673610000000508
 20
34.83420278000000536
 42
1.0
 10
136.57673610000000508
 20
34.83420278000000536
 42
1.0
 97
     0
 75
     0
 76
     1
 98
     0
  0
LWPOLYLINE
  5
e4
330
6d
  8
????
100
AcDbEntity
100
AcDbPolyline
  6
CONTINUOUS
420
2302755
 90
     2
 70
     1
 43
0.0
 10
134.57673610000000508
 20
34.83420278000000536
 42
1.0
 10
136.57673610000000508
 20
34.83420278000000536
 42
1.0
  0
HATCH
  5
e5
330
6d
100
AcDbEntity
  8
????
420
15167816
100
AcDbHatch
 10
0.0
 20
0.0
210
0.0
220
0.0
230
1.0
  2
SOLID
 70
     1
 71
     0
 91
     1
 92
     3
 72
     1
 73
     1
 93
     2
 10
134.57670559999999682
 20
34.83412221999999758
 42
1.0
 10
136.57670559999999682
 20
34.83412221999999758
 42
1.0
 97
     0
 75
     0
 76
     1
 98
     0
  0
LWPOLYLINE
  5
e6
330
6d
  8
????
100
AcDbEntity
100
AcDbPolyline
  6
CONTINUOUS
420
2302755
 90
     2
 70
     1
 43
0.0
 10
134.57670559999999682
 20
34.83412221999999758
 42
1.0
 10
136.57670559999999682
 20
34.83412221999999758
 42
1.0
  0
HATCH
  5
e7
330
6d
100
AcDbEntity
  8
????
420
15167816
100
AcDbHatch
 10
0.0
 20
0.0
210
0.0
220
0.0
230
1.0
  2
SOLID
 70
     1
 71
     0
 91
     1
 92
     3
 72
     1
 73
     1
 93
     2
 10
134.57660000000001332
 20
34.83392778000000334
 42
1.0
 10
136.57660000000001332
 20
34.83392778000000334
 42
1.0
 97
     0
 75
     0
 76
     1
 98
     0
  0
LWPOLYLINE
  5
e8
330
6d
  8
????
100
AcDbEntity
100
AcDbPolyline
  6
CONTINUOUS
420
2302755
 90
     2
 70
     1
 43
0.0
 10
134.57660000000001332
 20
34.83392778000000334
 42
1.0
 10
136.57660000000001332
 20
34.83392778000000334
 42
1.0
  0
HATCH
  5
e9
330
6d
100
AcDbEntity
  8
????
420
15167816
100
AcDbHatch
 10
0.0
 20
0.0
210
0.0
220
0.0
230
1.0
  2
SOLID
 70
     1
 71
     0
 91
     1
 92
     3
 72
     1
 73
     1
 93
     2
 10
134.57690560000000346
 20
34.8321722199999968
 42
1.0
 10
136.57690560000000346
 20
34.8321722199999968
 42
1.0
 97
     0
 75
     0
 76
     1
 98
     0
  0
LWPOLYLINE
  5
ea
330
6d
  8
????
100
AcDbEntity
100
AcDbPolyline
  6
CONTINUOUS
420
2302755
 90
     2
 70
     1
 43
0.0
 10
134.57690560000000346
 20
34.8321722199999968
 42
1.0
 10
136.57690560000000346
 20
34.8321722199999968
 42
1.0
  0
HATCH
  5
eb
330
6d
100
AcDbEntity
  8
????
420
15167816
100
AcDbHatch
 10
0.0
 20
0.0
210
0.0
220
0.0
230
1.0
  2
SOLID
 70
     1
 71
     0
 91
     1
 92
     3
 72
     1
 73
     1
 93
     2
 10
134.57740830000000187
 20
34.83006388999999814
 42
1.0
 10
136.57740830000000187
 20
34.83006388999999814
 42
1.0
 97
     0
 75
     0
 76
     1
 98
     0
  0
LWPOLYLINE
  5
ec
330
6d
  8
????
100
AcDbEntity
100
AcDbPolyline
  6
CONTINUOUS
420
2302755
 90
     2
 70
     1
 43
0.0
 10
134.57740830000000187
 20
34.83006388999999814
 42
1.0
 10
136.57740830000000187
 20
34.83006388999999814
 42
1.0
  0
HATCH
  5
ed
330
6d
100
AcDbEntity
  8
????
420
15167816
100
AcDbHatch
 10
0.0
 20
0.0
210
0.0
220
0.0
230
1.0
  2
SOLID
 70
     1
 71
     0
 91
     1
 92
     3
 72
     1
 73
     1
 93
     2
 10
134.57780560000000492
 20
34.83003611000000177
 42
1.0
 10
136.57780560000000492
 20
34.83003611000000177
 42
1.0
 97
     0
 75
     0
 76
     1
 98
     0
  0
LWPOLYLINE
  5
ee
330
6d
  8
????
100
AcDbEntity
100
AcDbPolyline
  6
CONTINUOUS
420
2302755
 90
     2
 70
     1
 43
0.0
 10
134.57780560000000492
 20
34.83003611000000177
 42
1.0
 10
136.57780560000000492
 20
34.83003611000000177
 42
1.0
  0
HATCH
  5
ef
330
6d
100
AcDbEntity
  8
????
420
15167816
100
AcDbHatch
 10
0.0
 20
0.0
210
0.0
220
0.0
230
1.0
  2
SOLID
 70
     1
 71
     0
 91
     1
 92
     3
 72
     1
 73
     1
 93
     2
 10
134.57803329999998709
 20
34.82990556000000026
 42
1.0
 10
136.57803329999998709
 20
34.82990556000000026
 42
1.0
 97
     0
 75
     0
 76
     1
 98
     0
  0
LWPOLYLINE
  5
f0
330
6d
  8
????
100
AcDbEntity
100
AcDbPolyline
  6
CONTINUOUS
420
2302755
 90
     2
 70
     1
 43
0.0
 10
134.57803329999998709
 20
34.82990556000000026
 42
1.0
 10
136.57803329999998709
 20
34.82990556000000026
 42
1.0
  0
HATCH
  5
f1
330
6d
100
AcDbEntity
  8
????
420
15167816
100
AcDbHatch
 10
0.0
 20
0.0
210
0.0
220
0.0
230
1.0
  2
SOLID
 70
     1
 71
     0
 91
     1
 92
     3
 72
     1
 73
     1
 93
     2
 10
134.57923890000000711
 20
34.82902500000000146
 42
1.0
 10
136.57923890000000711
 20
34.82902500000000146
 42
1.0
 97
     0
 75
     0
 76
     1
 98
     0
  0
LWPOLYLINE
  5
f2
330
6d
  8
????
100
AcDbEntity
100
AcDbPolyline
  6
CONTINUOUS
420
2302755
 90
     2
 70
     1
 43
0.0
 10
134.57923890000000711
 20
34.82902500000000146
 42
1.0
 10
136.57923890000000711
 20
34.82902500000000146
 42
1.0
  0
HATCH
  5
f3
330
6d
100
AcDbEntity
  8
????
420
15167816
100
AcDbHatch
 10
0.0
 20
0.0
210
0.0
220
0.0
230
1.0
  2
SOLID
 70
     1
 71
     0
 91
     1
 92
     3
 72
     1
 73
     1
 93
     2
 10
134.58372499999998695
 20
34.82957778000000104
 42
1.0
 10
136.58372499999998695
 20
34.82957778000000104
 42
1.0
 97
     0
 75
     0
 76
     1
 98
     0
  0
LWPOLYLINE
  5
f4
330
6d
  8
????
100
AcDbEntity
100
AcDbPolyline
  6
CONTINUOUS
420
2302755
 90
     2
 70
     1
 43
0.0
 10
134.58372499999998695
 20
34.82957778000000104
 42
1.0
 10
136.58372499999998695
 20
34.82957778000000104
 42
1.0
  0
ENDSEC
  0
SECTION
  2
OBJECTS
  0
DICTIONARY
  5
C
330
0
100
AcDbDictionary
281
     1
  3
ACAD_GROUP
350
D
  3
ACAD_LAYOUT
350
1A
  3
ACAD_MLEADERSTYLE
350
43
  3
ACAD_MLINESTYLE
350
17
  3
ACAD_PLOTSETTINGS
350
19
  3
ACAD_PLOTSTYLENAME
350
E
  3
ACAD_TABLESTYLE
350
42
  3
ACAD_VISUALSTYLE
350
2A
  0
DICTIONARY
  5
D
102
{ACAD_REACTORS
330
C
102
}
330
C
100
AcDbDictionary
281
     1
  0
DICTIONARY
  5
1A
102
{ACAD_REACTORS
330
C
102
}
330
C
100
AcDbDictionary
281
     1
  3
Layout1
350
1E
  3
Layout2
350
26
  3
Model
350
22
  0
DICTIONARY
  5
43
102
{ACAD_REACTORS
330
C
102
}
330
C
100
AcDbDictionary
281
     1
  0
DICTIONARY
  5
17
102
{ACAD_REACTORS
330
C
102
}
330
C
100
AcDbDictionary
281
     1
  3
Standard
350
18
  0
DICTIONARY
  5
19
102
{ACAD_REACTORS
330
C
102
}
330
C
100
AcDbDictionary
281
     1
  0
ACDBDICTIONARYWDFLT
  5
E
102
{ACAD_REACTORS
330
C
102
}
330
C
100
AcDbDictionary
281
     1
  3
Normal
350
F
100
AcDbDictionaryWithDefault
340
F
  0
DICTIONARY
  5
42
102
{ACAD_REACTORS
330
C
102
}
330
C
100
AcDbDictionary
281
     1
  0
DICTIONARY
  5
2A
102
{ACAD_REACTORS
330
C
102
}
330
C
100
AcDbDictionary
281
     1
  3
2dWireframe
350
2F
  3
3D Hidden
350
31
  3
3dWireframe
350
30
  3
Basic
350
32
  3
Brighten
350
36
  3
ColorChange
350
3A
  3
Conceptual
350
34
  3
Dim
350
35
  3
Facepattern
350
39
  3
Flat
350
2B
  3
FlatWithEdges
350
2C
  3
Gouraud
350
2D
  3
GouraudWithEdges
350
2E
  3
Linepattern
350
38
  3
Realistic
350
33
  3
Thicken
350
37
  0
LAYOUT
  5
1E
102
{ACAD_REACTORS
330
1A
102
}
330
1A
100
AcDbPlotSettings
  1

  2
none_device
  4

  6

 40
0.0
 41
0.0
 42
0.0
 43
0.0
 44
0.0
 45
0.0
 46
0.0
 47
0.0
 48
0.0
 49
0.0
140
0.0
141
0.0
142
1.0
143
1.0
 70
   688
 72
     0
 73
     0
 74
     5
  7

 75
    16
 76
     0
 77
     2
 78
   300
147
1.0
148
0.0
149
0.0
100
AcDbLayout
  1
Layout1
 70
     1
 71
     1
 10
0.0
 20
0.0
 11
12.0
 21
9.0
 12
0.0
 22
0.0
 32
0.0
 14
1.000000000000000E+20
 24
1.000000000000000E+20
 34
1.000000000000000E+20
 15
-1.000000000000000E+20
 25
-1.000000000000000E+20
 35
-1.000000000000000E+20
146
0.0
 13
0.0
 23
0.0
 33
0.0
 16
1.0
 26
0.0
 36
0.0
 17
0.0
 27
1.0
 37
0.0
 76
     0
330
1B
  0
LAYOUT
  5
26
102
{ACAD_REACTORS
330
1A
102
}
330
1A
100
AcDbPlotSettings
  1

  2
none_device
  4

  6

 40
0.0
 41
0.0
 42
0.0
 43
0.0
 44
0.0
 45
0.0
 46
0.0
 47
0.0
 48
0.0
 49
0.0
140
0.0
141
0.0
142
1.0
143
1.0
 70
   688
 72
     0
 73
     0
 74
     5
  7

 75
    16
 76
     0
 77
     2
 78
   300
147
1.0
148
0.0
149
0.0
100
AcDbLayout
  1
Layout2
 70
     1
 71
     2
 10
0.0
 20
0.0
 11
0.0
 21
0.0
 12
0.0
 22
0.0
 32
0.0
 14
0.0
 24
0.0
 34
0.0
 15
0.0
 25
0.0
 35
0.0
146
0.0
 13
0.0
 23
0.0
 33
0.0
 16
1.0
 26
0.0
 36
0.0
 17
0.0
 27
1.0
 37
0.0
 76
     0
330
23
  0
LAYOUT
  5
22
102
{ACAD_REACTORS
330
1A
102
}
330
1A
100
AcDbPlotSettings
  1

  2
none_device
  4

  6

 40
0.0
 41
0.0
 42
0.0
 43
0.0
 44
0.0
 45
0.0
 46
0.0
 47
0.0
 48
0.0
 49
0.0
140
0.0
141
0.0
142
1.0
143
1.0
 70
  1712
 72
     0
 73
     0
 74
     0
  7

 75
     0
 76
     0
 77
     2
 78
   300
147
1.0
148
0.0
149
0.0
100
AcDbLayout
  1
Model
 70
     1
 71
     0
 10
0.0
 20
0.0
 11
12.0
 21
9.0
 12
0.0
 22
0.0
 32
0.0
 14
30.0
 24
49.75
 34
0.0
 15
130.5
 25
163.1318914119703
 35
0.0
146
0.0
 13
0.0
 23
0.0
 33
0.0
 16
1.0
 26
0.0
 36
0.0
 17
0.0
 27
1.0
 37
0.0
 76
     0
330
1F
331
29
  0
MLINESTYLE
  5
18
102
{ACAD_REACTORS
330
17
102
}
330
17
100
AcDbMlineStyle
  2
Standard
 70
     0
  3

 62
   256
 51
90.0
 52
90.0
 71
     2
 49
0.5
 62
   256
  6
BYLAYER
 49
-0.5
 62
   256
  6
BYLAYER
  0
ACDBPLACEHOLDER
  5
F
102
{ACAD_REACTORS
330
E
102
}
330
E
  0
VISUALSTYLE
  5
2F
102
{ACAD_REACTORS
330
2A
102
}
330
2A
100
AcDbVisualStyle
  2
2dWireframe
 70
     4
 71
     0
 72
     2
 73
     0
 90
        0
 40
-0.6
 41
-30.0
 62
     5
 63
     7
421
 16777215
 74
     1
 91
        4
 64
     7
 65
   257
 75
     1
175
     1
 42
1.0
 92
        0
 66
   257
 43
1.0
 76
     1
 77
     6
 78
     2
 67
     7
 79
     5
170
     0
171
     0
290
     0
174
     0
 93
        1
 44
0.0
173
     0
291
     0
 45
0.0
1001
ACAD
1000
AcDbSavedByObjectVersion
1070
     0
  0
VISUALSTYLE
  5
31
102
{ACAD_REACTORS
330
2A
102
}
330
2A
100
AcDbVisualStyle
  2
3D Hidden
 70
     6
 71
     1
 72
     2
 73
     2
 90
        0
 40
-0.6
 41
-30.0
 62
     5
 63
     7
421
 16777215
 74
     2
 91
        2
 64
     7
 65
   257
 75
     2
175
     1
 42
40.0
 92
        0
 66
   257
 43
1.0
 76
     1
 77
     6
 78
     2
 67
     7
 79
     3
170
     0
171
     0
290
     0
174
     0
 93
        1
 44
0.0
173
     0
291
     0
 45
0.0
1001
ACAD
1000
AcDbSavedByObjectVersion
1070
     0
  0
VISUALSTYLE
  5
30
102
{ACAD_REACTORS
330
2A
102
}
330
2A
100
AcDbVisualStyle
  2
3dWireframe
 70
     5
 71
     0
 72
     2
 73
     0
 90
        0
 40
-0.6
 41
-30.0
 62
     5
 63
     7
421
 16777215
 74
     1
 91
        4
 64
     7
 65
   257
 75
     1
175
     1
 42
1.0
 92
        0
 66
   257
 43
1.0
 76
     1
 77
     6
 78
     2
 67
     7
 79
     5
170
     0
171
     0
290
     0
174
     0
 93
        1
 44
0.0
173
     0
291
     0
 45
0.0
1001
ACAD
1000
AcDbSavedByObjectVersion
1070
     0
  0
VISUALSTYLE
  5
32
102
{ACAD_REACTORS
330
2A
102
}
330
2A
100
AcDbVisualStyle
  2
Basic
 70
     7
 71
     1
 72
     0
 73
     1
 90
        0
 40
-0.6
 41
-30.0
 62
     5
 63
     7
421
 16777215
 74
     0
 91
        4
 64
     7
 65
   257
 75
     1
175
     1
 42
1.0
 92
        8
 66
     7
 43
1.0
 76
     1
 77
     6
 78
     2
 67
     7
 79
     5
170
     0
171
     0
290
     0
174
     0
 93
        1
 44
0.0
173
     0
291
     1
 45
0.0
1001
ACAD
1000
AcDbSavedByObjectVersion
1070
     0
  0
VISUALSTYLE
  5
36
102
{ACAD_REACTORS
330
2A
102
}
330
2A
100
AcDbVisualStyle
  2
Brighten
 70
    12
 71
     2
 72
     2
 73
     0
 90
        0
 40
-0.6
 41
-30.0
 62
     5
 63
     7
421
 16777215
 74
     1
 91
        4
 64
     7
 65
   257
 75
     1
175
     1
 42
1.0
 92
        8
 66
     7
 43
1.0
 76
     1
 77
     6
 78
     2
 67
     7
 79
     5
170
     0
171
     0
290
     0
174
     0
 93
        1
 44
50.0
173
     0
291
     1
 45
0.0
1001
ACAD
1000
AcDbSavedByObjectVersion
1070
     0
  0
VISUALSTYLE
  5
3A
102
{ACAD_REACTORS
330
2A
102
}
330
2A
100
AcDbVisualStyle
  2
ColorChange
 70
    16
 71
     2
 72
     2
 73
     3
 90
        0
 40
-0.6
 41
-30.0
 62
     5
 63
     8
421
  8421504
 74
     1
 91
        4
 64
     7
 65
   257
 75
     1
175
     1
 42
1.0
 92
        8
 66
     8
424
  8421504
 43
1.0
 76
     1
 77
     6
 78
     2
 67
     7
 79
     5
170
     0
171
     0
290
     0
174
     0
 93
        1
 44
0.0
173
     0
291
     1
 45
0.0
1001
ACAD
1000
AcDbSavedByObjectVersion
1070
     0
  0
VISUALSTYLE
  5
34
102
{ACAD_REACTORS
330
2A
102
}
330
2A
100
AcDbVisualStyle
  2
Conceptual
 70
     9
 71
     3
 72
     2
 73
     0
 90
        0
 40
-0.6
 41
-30.0
 62
     5
 63
     7
421
 16777215
 74
     2
 91
        2
 64
     7
 65
   257
 75
     1
175
     1
 42
40.0
 92
        8
 66
     7
 43
1.0
 76
     1
 77
     6
 78
     2
 67
     7
 79
     3
170
     0
171
     0
290
     0
174
     0
 93
        1
 44
0.0
173
     0
291
     0
 45
0.0
1001
ACAD
1000
AcDbSavedByObjectVersion
1070
     0
  0
VISUALSTYLE
  5
35
102
{ACAD_REACTORS
330
2A
102
}
330
2A
100
AcDbVisualStyle
  2
Dim
 70
    11
 71
     2
 72
     2
 73
     0
 90
        0
 40
-0.6
 41
-30.0
 62
     5
 63
     7
421
 16777215
 74
     1
 91
        4
 64
     7
 65
   257
 75
     1
175
     1
 42
1.0
 92
        8
 66
     7
 43
1.0
 76
     1
 77
     6
 78
     2
 67
     7
 79
     5
170
     0
171
     0
290
     0
174
     0
 93
        1
 44
-50.0
173
     0
291
     1
 45
0.0
1001
ACAD
1000
AcDbSavedByObjectVersion
1070
     0
  0
VISUALSTYLE
  5
39
102
{ACAD_REACTORS
330
2A
102
}
330
2A
100
AcDbVisualStyle
  2
Facepattern
 70
    15
 71
     2
 72
     2
 73
     0
 90
        0
 40
-0.6
 41
-30.0
 62
     5
 63
     7
421
 16777215
 74
     1
 91
        4
 64
     7
 65
   257
 75
     1
175
     1
 42
1.0
 92
        8
 66
     7
 43
1.0
 76
     1
 77
     6
 78
     2
 67
     7
 79
     5
170
     0
171
     0
290
     0
174
     0
 93
        1
 44
0.0
173
     0
291
     1
 45
0.0
1001
ACAD
1000
AcDbSavedByObjectVersion
1070
     0
  0
VISUALSTYLE
  5
2B
102
{ACAD_REACTORS
330
2A
102
}
330
2A
100
AcDbVisualStyle
  2
Flat
 70
     0
 71
     2
 72
     1
 73
     1
 90
        2
 40
-0.6
 41
30.0
 62
     5
 63
     7
421
 16777215
 74
     0
 91
        4
 64
     7
 65
   257
 75
     1
175
     1
 42
1.0
 92
        8
 66
     7
 43
1.0
 76
     1
 77
     6
 78
     2
 67
     7
 79
     5
170
     0
171
     0
290
     0
174
     0
 93
       13
 44
0.0
173
     0
291
     1
 45
0.0
1001
ACAD
1000
AcDbSavedByObjectVersion
1070
     0
  0
VISUALSTYLE
  5
2C
102
{ACAD_REACTORS
330
2A
102
}
330
2A
100
AcDbVisualStyle
  2
FlatWithEdges
 70
     1
 71
     2
 72
     1
 73
     1
 90
        2
 40
-0.6
 41
30.0
 62
     5
 63
     7
421
 16777215
 74
     1
 91
        4
 64
     7
 65
   257
 75
     1
175
     1
 42
1.0
 92
        0
 66
   257
 43
1.0
 76
     1
 77
     6
 78
     2
 67
     7
 79
     5
170
     0
171
     0
290
     0
174
     0
 93
       13
 44
0.0
173
     0
291
     1
 45
0.0
1001
ACAD
1000
AcDbSavedByObjectVersion
1070
     0
  0
VISUALSTYLE
  5
2D
102
{ACAD_REACTORS
330
2A
102
}
330
2A
100
AcDbVisualStyle
  2
Gouraud
 70
     2
 71
     2
 72
     2
 73
     1
 90
        2
 40
-0.6
 41
30.0
 62
     5
 63
     7
421
 16777215
 74
     0
 91
        4
 64
     7
 65
   257
 75
     1
175
     1
 42
1.0
 92
        0
 66
     7
 43
1.0
 76
     1
 77
     6
 78
     2
 67
     7
 79
     5
170
     0
171
     0
290
     0
174
     0
 93
       13
 44
0.0
173
     0
291
     1
 45
0.0
1001
ACAD
1000
AcDbSavedByObjectVersion
1070
     0
  0
VISUALSTYLE
  5
2E
102
{ACAD_REACTORS
330
2A
102
}
330
2A
100
AcDbVisualStyle
  2
GouraudWithEdges
 70
     3
 71
     2
 72
     2
 73
     1
 90
        2
 40
-0.6
 41
30.0
 62
     5
 63
     7
421
 16777215
 74
     1
 91
        4
 64
     7
 65
   257
 75
     1
175
     1
 42
1.0
 92
        0
 66
   257
 43
1.0
 76
     1
 77
     6
 78
     2
 67
     7
 79
     5
170
     0
171
     0
290
     0
174
     0
 93
       13
 44
0.0
173
     0
291
     1
 45
0.0
1001
ACAD
1000
AcDbSavedByObjectVersion
1070
     0
  0
VISUALSTYLE
  5
38
102
{ACAD_REACTORS
330
2A
102
}
330
2A
100
AcDbVisualStyle
  2
Linepattern
 70
    14
 71
     2
 72
     2
 73
     0
 90
        0
 40
-0.6
 41
-30.0
 62
     5
 63
     7
421
 16777215
 74
     1
 91
        4
 64
     7
 65
   257
 75
     7
175
     7
 42
1.0
 92
        8
 66
     7
 43
1.0
 76
     1
 77
     6
 78
     2
 67
     7
 79
     5
170
     0
171
     0
290
     0
174
     0
 93
        1
 44
0.0
173
     0
291
     1
 45
0.0
1001
ACAD
1000
AcDbSavedByObjectVersion
1070
     0
  0
VISUALSTYLE
  5
33
102
{ACAD_REACTORS
330
2A
102
}
330
2A
100
AcDbVisualStyle
  2
Realistic
 70
     8
 71
     2
 72
     2
 73
     0
 90
        0
 40
-0.6
 41
-30.0
 62
     5
 63
     7
421
 16777215
 74
     1
 91
        0
 64
     7
 65
   257
 75
     1
175
     1
 42
1.0
 92
        8
 66
     8
424
  7895160
 43
1.0
 76
     1
 77
     6
 78
     2
 67
     7
 79
     5
170
     0
171
     0
290
     0
174
     0
 93
       13
 44
0.0
173
     0
291
     0
 45
0.0
1001
ACAD
1000
AcDbSavedByObjectVersion
1070
     0
  0
VISUALSTYLE
  5
37
102
{ACAD_REACTORS
330
2A
102
}
330
2A
100
AcDbVisualStyle
  2
Thicken
 70
    13
 71
     2
 72
     2
 73
     0
 90
        0
 40
-0.6
 41
-30.0
 62
     5
 63
     7
421
 16777215
 74
     1
 91
        4
 64
     7
 65
   257
 75
     1
175
     1
 42
1.0
 92
       12
 66
     7
 43
1.0
 76
     1
 77
     6
 78
     2
 67
     7
 79
     5
170
     0
171
     0
290
     0
174
     0
 93
        1
 44
0.0
173
     0
291
     1
 45
0.0
1001
ACAD
1000
AcDbSavedByObjectVersion
1070
     0
  0
ENDSEC
  0
EOF
